STARTFONT 2.1
COMMENT Exported by Fony v1.3.6
FONT Bm437
SIZE 8 96 96
FONTBOUNDINGBOX 8 7 0 -1
STARTPROPERTIES 6
COPYRIGHT "FON conversion by VileR, 2020; license: CC BY-SA 4.0"
RESOLUTION_X 96
RESOLUTION_Y 96
FONT_ASCENT 7
FONT_DESCENT 1
DEFAULT_CHAR 0
ENDPROPERTIES
CHARS 256
STARTCHAR 000
ENCODING 0
SWIDTH 576 0
DWIDTH 8 0
BBX 0 0 0 0
BITMAP
ENDCHAR
STARTCHAR 001
ENCODING 1
SWIDTH 576 0
DWIDTH 8 0
BBX 8 8 0 -1
BITMAP
7E
81
A5
A5
81
BD
81
7E
ENDCHAR
STARTCHAR 002
ENCODING 2
SWIDTH 576 0
DWIDTH 8 0
BBX 8 8 0 -1
BITMAP
7E
FF
DB
DB
FF
FF
C3
7E
ENDCHAR
STARTCHAR 003
ENCODING 3
SWIDTH 576 0
DWIDTH 8 0
BBX 7 7 1 0
BITMAP
6C
FE
FE
FE
7C
38
10
ENDCHAR
STARTCHAR 004
ENCODING 4
SWIDTH 576 0
DWIDTH 8 0
BBX 7 7 1 0
BITMAP
10
38
7C
FE
7C
38
10
ENDCHAR
STARTCHAR 005
ENCODING 5
SWIDTH 576 0
DWIDTH 8 0
BBX 7 7 1 0
BITMAP
38
38
FE
FE
D6
10
7C
ENDCHAR
STARTCHAR 006
ENCODING 6
SWIDTH 576 0
DWIDTH 8 0
BBX 7 7 1 0
BITMAP
10
38
7C
FE
FE
38
7C
ENDCHAR
STARTCHAR 007
ENCODING 7
SWIDTH 576 0
DWIDTH 8 0
BBX 4 4 2 1
BITMAP
60
F0
F0
60
ENDCHAR
STARTCHAR 008
ENCODING 8
SWIDTH 576 0
DWIDTH 8 0
BBX 8 8 0 -1
BITMAP
FF
FF
E7
C3
C3
E7
FF
FF
ENDCHAR
STARTCHAR 009
ENCODING 9
SWIDTH 576 0
DWIDTH 8 0
BBX 6 6 1 0
BITMAP
78
84
84
84
84
78
ENDCHAR
STARTCHAR 010
ENCODING 10
SWIDTH 576 0
DWIDTH 8 0
BBX 8 8 0 -1
BITMAP
FF
C3
BD
BD
BD
BD
C3
FF
ENDCHAR
STARTCHAR 011
ENCODING 11
SWIDTH 576 0
DWIDTH 8 0
BBX 7 7 1 0
BITMAP
0E
06
0A
70
90
90
60
ENDCHAR
STARTCHAR 012
ENCODING 12
SWIDTH 576 0
DWIDTH 8 0
BBX 5 8 2 -1
BITMAP
70
88
88
88
70
20
F8
20
ENDCHAR
STARTCHAR 013
ENCODING 13
SWIDTH 576 0
DWIDTH 8 0
BBX 6 8 2 -1
BITMAP
30
38
24
24
24
68
E0
C0
ENDCHAR
STARTCHAR 014
ENCODING 14
SWIDTH 576 0
DWIDTH 8 0
BBX 7 8 1 -1
BITMAP
3E
22
3E
22
62
E6
CE
0C
ENDCHAR
STARTCHAR 015
ENCODING 15
SWIDTH 576 0
DWIDTH 8 0
BBX 7 7 1 0
BITMAP
92
54
28
C6
28
54
92
ENDCHAR
STARTCHAR 016
ENCODING 16
SWIDTH 576 0
DWIDTH 8 0
BBX 6 7 2 0
BITMAP
80
C0
F0
FC
F0
C0
80
ENDCHAR
STARTCHAR 017
ENCODING 17
SWIDTH 576 0
DWIDTH 8 0
BBX 6 7 2 0
BITMAP
04
0C
3C
FC
3C
0C
04
ENDCHAR
STARTCHAR 018
ENCODING 18
SWIDTH 576 0
DWIDTH 8 0
BBX 5 7 2 0
BITMAP
20
70
A8
20
A8
70
20
ENDCHAR
STARTCHAR 019
ENCODING 19
SWIDTH 576 0
DWIDTH 8 0
BBX 4 7 2 0
BITMAP
90
90
90
90
00
00
90
ENDCHAR
STARTCHAR 020
ENCODING 20
SWIDTH 576 0
DWIDTH 8 0
BBX 7 7 1 0
BITMAP
7E
A8
A8
68
28
28
28
ENDCHAR
STARTCHAR 021
ENCODING 21
SWIDTH 576 0
DWIDTH 8 0
BBX 6 8 1 -1
BITMAP
78
84
F0
48
48
3C
84
78
ENDCHAR
STARTCHAR 022
ENCODING 22
SWIDTH 576 0
DWIDTH 8 0
BBX 6 2 1 2
BITMAP
FC
FC
ENDCHAR
STARTCHAR 023
ENCODING 23
SWIDTH 576 0
DWIDTH 8 0
BBX 7 8 1 -1
BITMAP
10
38
54
10
54
38
10
FE
ENDCHAR
STARTCHAR 024
ENCODING 24
SWIDTH 576 0
DWIDTH 8 0
BBX 5 7 2 0
BITMAP
20
70
A8
20
20
20
20
ENDCHAR
STARTCHAR 025
ENCODING 25
SWIDTH 576 0
DWIDTH 8 0
BBX 5 7 2 0
BITMAP
20
20
20
20
A8
70
20
ENDCHAR
STARTCHAR 026
ENCODING 26
SWIDTH 576 0
DWIDTH 8 0
BBX 7 5 1 1
BITMAP
08
04
FE
04
08
ENDCHAR
STARTCHAR 027
ENCODING 27
SWIDTH 576 0
DWIDTH 8 0
BBX 7 5 1 1
BITMAP
20
40
FE
40
20
ENDCHAR
STARTCHAR 028
ENCODING 28
SWIDTH 576 0
DWIDTH 8 0
BBX 6 4 1 0
BITMAP
80
80
80
FC
ENDCHAR
STARTCHAR 029
ENCODING 29
SWIDTH 576 0
DWIDTH 8 0
BBX 7 5 1 1
BITMAP
28
44
FE
44
28
ENDCHAR
STARTCHAR 030
ENCODING 30
SWIDTH 576 0
DWIDTH 8 0
BBX 7 5 1 1
BITMAP
10
38
7C
FE
FE
ENDCHAR
STARTCHAR 031
ENCODING 31
SWIDTH 576 0
DWIDTH 8 0
BBX 7 5 1 1
BITMAP
FE
FE
7C
38
10
ENDCHAR
STARTCHAR 032
ENCODING 32
SWIDTH 576 0
DWIDTH 8 0
BBX 0 0 0 0
BITMAP
ENDCHAR
STARTCHAR 033
ENCODING 33
SWIDTH 576 0
DWIDTH 8 0
BBX 1 7 4 0
BITMAP
80
80
80
80
00
00
80
ENDCHAR
STARTCHAR 034
ENCODING 34
SWIDTH 576 0
DWIDTH 8 0
BBX 4 3 2 4
BITMAP
90
90
90
ENDCHAR
STARTCHAR 035
ENCODING 35
SWIDTH 576 0
DWIDTH 8 0
BBX 6 7 1 0
BITMAP
48
48
FC
48
FC
48
48
ENDCHAR
STARTCHAR 036
ENCODING 36
SWIDTH 576 0
DWIDTH 8 0
BBX 5 7 2 0
BITMAP
20
78
A0
70
28
F0
20
ENDCHAR
STARTCHAR 037
ENCODING 37
SWIDTH 576 0
DWIDTH 8 0
BBX 6 6 1 0
BITMAP
C4
C8
10
20
4C
8C
ENDCHAR
STARTCHAR 038
ENCODING 38
SWIDTH 576 0
DWIDTH 8 0
BBX 6 7 1 0
BITMAP
60
90
90
60
94
88
74
ENDCHAR
STARTCHAR 039
ENCODING 39
SWIDTH 576 0
DWIDTH 8 0
BBX 3 3 3 4
BITMAP
20
40
80
ENDCHAR
STARTCHAR 040
ENCODING 40
SWIDTH 576 0
DWIDTH 8 0
BBX 3 7 3 0
BITMAP
20
40
80
80
80
40
20
ENDCHAR
STARTCHAR 041
ENCODING 41
SWIDTH 576 0
DWIDTH 8 0
BBX 3 7 2 0
BITMAP
80
40
20
20
20
40
80
ENDCHAR
STARTCHAR 042
ENCODING 42
SWIDTH 576 0
DWIDTH 8 0
BBX 5 7 2 0
BITMAP
20
A8
70
F8
70
A8
20
ENDCHAR
STARTCHAR 043
ENCODING 43
SWIDTH 576 0
DWIDTH 8 0
BBX 5 5 2 1
BITMAP
20
20
F8
20
20
ENDCHAR
STARTCHAR 044
ENCODING 44
SWIDTH 576 0
DWIDTH 8 0
BBX 2 3 3 -1
BITMAP
40
40
80
ENDCHAR
STARTCHAR 045
ENCODING 45
SWIDTH 576 0
DWIDTH 8 0
BBX 6 1 1 3
BITMAP
FC
ENDCHAR
STARTCHAR 046
ENCODING 46
SWIDTH 576 0
DWIDTH 8 0
BBX 2 2 3 0
BITMAP
C0
C0
ENDCHAR
STARTCHAR 047
ENCODING 47
SWIDTH 576 0
DWIDTH 8 0
BBX 6 6 1 0
BITMAP
04
08
10
20
40
80
ENDCHAR
STARTCHAR 048
ENCODING 48
SWIDTH 576 0
DWIDTH 8 0
BBX 6 7 1 0
BITMAP
78
84
8C
B4
C4
84
78
ENDCHAR
STARTCHAR 049
ENCODING 49
SWIDTH 576 0
DWIDTH 8 0
BBX 5 7 2 0
BITMAP
20
60
A0
20
20
20
F8
ENDCHAR
STARTCHAR 050
ENCODING 50
SWIDTH 576 0
DWIDTH 8 0
BBX 6 7 1 0
BITMAP
78
84
04
18
60
80
FC
ENDCHAR
STARTCHAR 051
ENCODING 51
SWIDTH 576 0
DWIDTH 8 0
BBX 6 7 1 0
BITMAP
78
84
04
38
04
84
78
ENDCHAR
STARTCHAR 052
ENCODING 52
SWIDTH 576 0
DWIDTH 8 0
BBX 6 7 1 0
BITMAP
08
18
28
48
FC
08
08
ENDCHAR
STARTCHAR 053
ENCODING 53
SWIDTH 576 0
DWIDTH 8 0
BBX 6 7 1 0
BITMAP
FC
80
F0
08
04
88
70
ENDCHAR
STARTCHAR 054
ENCODING 54
SWIDTH 576 0
DWIDTH 8 0
BBX 6 7 1 0
BITMAP
78
84
80
F8
84
84
78
ENDCHAR
STARTCHAR 055
ENCODING 55
SWIDTH 576 0
DWIDTH 8 0
BBX 6 7 1 0
BITMAP
FC
84
08
10
20
20
20
ENDCHAR
STARTCHAR 056
ENCODING 56
SWIDTH 576 0
DWIDTH 8 0
BBX 6 7 1 0
BITMAP
78
84
84
78
84
84
78
ENDCHAR
STARTCHAR 057
ENCODING 57
SWIDTH 576 0
DWIDTH 8 0
BBX 6 7 1 0
BITMAP
78
84
84
7C
04
84
78
ENDCHAR
STARTCHAR 058
ENCODING 58
SWIDTH 576 0
DWIDTH 8 0
BBX 1 4 4 1
BITMAP
80
00
00
80
ENDCHAR
STARTCHAR 059
ENCODING 59
SWIDTH 576 0
DWIDTH 8 0
BBX 2 6 3 -1
BITMAP
40
00
00
40
40
80
ENDCHAR
STARTCHAR 060
ENCODING 60
SWIDTH 576 0
DWIDTH 8 0
BBX 6 7 1 0
BITMAP
1C
30
60
C0
60
30
1C
ENDCHAR
STARTCHAR 061
ENCODING 61
SWIDTH 576 0
DWIDTH 8 0
BBX 6 3 1 2
BITMAP
FC
00
FC
ENDCHAR
STARTCHAR 062
ENCODING 62
SWIDTH 576 0
DWIDTH 8 0
BBX 6 7 1 0
BITMAP
E0
30
18
0C
18
30
E0
ENDCHAR
STARTCHAR 063
ENCODING 63
SWIDTH 576 0
DWIDTH 8 0
BBX 6 7 1 0
BITMAP
78
84
04
18
20
00
20
ENDCHAR
STARTCHAR 064
ENCODING 64
SWIDTH 576 0
DWIDTH 8 0
BBX 6 7 1 0
BITMAP
38
44
94
AC
98
40
3C
ENDCHAR
STARTCHAR 065
ENCODING 65
SWIDTH 576 0
DWIDTH 8 0
BBX 6 7 1 0
BITMAP
30
48
84
FC
84
84
84
ENDCHAR
STARTCHAR 066
ENCODING 66
SWIDTH 576 0
DWIDTH 8 0
BBX 6 7 1 0
BITMAP
F8
44
44
78
44
44
F8
ENDCHAR
STARTCHAR 067
ENCODING 67
SWIDTH 576 0
DWIDTH 8 0
BBX 6 7 1 0
BITMAP
38
44
80
80
80
44
38
ENDCHAR
STARTCHAR 068
ENCODING 68
SWIDTH 576 0
DWIDTH 8 0
BBX 6 7 1 0
BITMAP
F0
48
44
44
44
48
F0
ENDCHAR
STARTCHAR 069
ENCODING 69
SWIDTH 576 0
DWIDTH 8 0
BBX 6 7 1 0
BITMAP
FC
80
80
F0
80
80
FC
ENDCHAR
STARTCHAR 070
ENCODING 70
SWIDTH 576 0
DWIDTH 8 0
BBX 6 7 1 0
BITMAP
FC
80
80
F0
80
80
80
ENDCHAR
STARTCHAR 071
ENCODING 71
SWIDTH 576 0
DWIDTH 8 0
BBX 6 7 1 0
BITMAP
38
44
80
9C
84
44
38
ENDCHAR
STARTCHAR 072
ENCODING 72
SWIDTH 576 0
DWIDTH 8 0
BBX 6 7 1 0
BITMAP
84
84
84
FC
84
84
84
ENDCHAR
STARTCHAR 073
ENCODING 73
SWIDTH 576 0
DWIDTH 8 0
BBX 3 7 3 0
BITMAP
E0
40
40
40
40
40
E0
ENDCHAR
STARTCHAR 074
ENCODING 74
SWIDTH 576 0
DWIDTH 8 0
BBX 6 7 1 0
BITMAP
1C
08
08
08
08
88
70
ENDCHAR
STARTCHAR 075
ENCODING 75
SWIDTH 576 0
DWIDTH 8 0
BBX 6 7 1 0
BITMAP
84
88
90
E0
90
88
84
ENDCHAR
STARTCHAR 076
ENCODING 76
SWIDTH 576 0
DWIDTH 8 0
BBX 6 7 1 0
BITMAP
80
80
80
80
80
80
FC
ENDCHAR
STARTCHAR 077
ENCODING 77
SWIDTH 576 0
DWIDTH 8 0
BBX 6 7 1 0
BITMAP
84
CC
B4
B4
84
84
84
ENDCHAR
STARTCHAR 078
ENCODING 78
SWIDTH 576 0
DWIDTH 8 0
BBX 6 7 1 0
BITMAP
84
C4
A4
94
8C
84
84
ENDCHAR
STARTCHAR 079
ENCODING 79
SWIDTH 576 0
DWIDTH 8 0
BBX 6 7 1 0
BITMAP
30
48
84
84
84
48
30
ENDCHAR
STARTCHAR 080
ENCODING 80
SWIDTH 576 0
DWIDTH 8 0
BBX 6 7 1 0
BITMAP
F8
84
84
F8
80
80
80
ENDCHAR
STARTCHAR 081
ENCODING 81
SWIDTH 576 0
DWIDTH 8 0
BBX 6 7 1 0
BITMAP
30
48
84
84
94
48
34
ENDCHAR
STARTCHAR 082
ENCODING 82
SWIDTH 576 0
DWIDTH 8 0
BBX 6 7 1 0
BITMAP
F8
84
84
F8
90
88
84
ENDCHAR
STARTCHAR 083
ENCODING 83
SWIDTH 576 0
DWIDTH 8 0
BBX 6 7 1 0
BITMAP
78
84
80
78
04
84
78
ENDCHAR
STARTCHAR 084
ENCODING 84
SWIDTH 576 0
DWIDTH 8 0
BBX 5 7 2 0
BITMAP
F8
20
20
20
20
20
20
ENDCHAR
STARTCHAR 085
ENCODING 85
SWIDTH 576 0
DWIDTH 8 0
BBX 6 7 1 0
BITMAP
84
84
84
84
84
84
78
ENDCHAR
STARTCHAR 086
ENCODING 86
SWIDTH 576 0
DWIDTH 8 0
BBX 6 7 1 0
BITMAP
84
84
84
48
48
30
30
ENDCHAR
STARTCHAR 087
ENCODING 87
SWIDTH 576 0
DWIDTH 8 0
BBX 6 7 1 0
BITMAP
84
84
84
B4
B4
CC
84
ENDCHAR
STARTCHAR 088
ENCODING 88
SWIDTH 576 0
DWIDTH 8 0
BBX 6 7 1 0
BITMAP
84
84
48
30
48
84
84
ENDCHAR
STARTCHAR 089
ENCODING 89
SWIDTH 576 0
DWIDTH 8 0
BBX 5 7 2 0
BITMAP
88
88
88
70
20
20
20
ENDCHAR
STARTCHAR 090
ENCODING 90
SWIDTH 576 0
DWIDTH 8 0
BBX 6 7 1 0
BITMAP
FC
04
08
30
40
80
FC
ENDCHAR
STARTCHAR 091
ENCODING 91
SWIDTH 576 0
DWIDTH 8 0
BBX 4 7 2 0
BITMAP
F0
80
80
80
80
80
F0
ENDCHAR
STARTCHAR 092
ENCODING 92
SWIDTH 576 0
DWIDTH 8 0
BBX 7 7 0 0
BITMAP
80
40
20
10
08
04
02
ENDCHAR
STARTCHAR 093
ENCODING 93
SWIDTH 576 0
DWIDTH 8 0
BBX 4 7 2 0
BITMAP
F0
10
10
10
10
10
F0
ENDCHAR
STARTCHAR 094
ENCODING 94
SWIDTH 576 0
DWIDTH 8 0
BBX 5 3 2 4
BITMAP
20
50
88
ENDCHAR
STARTCHAR 095
ENCODING 95
SWIDTH 576 0
DWIDTH 8 0
BBX 6 1 1 0
BITMAP
FC
ENDCHAR
STARTCHAR 096
ENCODING 96
SWIDTH 576 0
DWIDTH 8 0
BBX 3 3 2 4
BITMAP
80
40
20
ENDCHAR
STARTCHAR 097
ENCODING 97
SWIDTH 576 0
DWIDTH 8 0
BBX 6 5 1 0
BITMAP
78
08
78
88
74
ENDCHAR
STARTCHAR 098
ENCODING 98
SWIDTH 576 0
DWIDTH 8 0
BBX 6 7 1 0
BITMAP
80
80
B8
C4
84
C4
B8
ENDCHAR
STARTCHAR 099
ENCODING 99
SWIDTH 576 0
DWIDTH 8 0
BBX 6 5 1 0
BITMAP
78
84
80
84
78
ENDCHAR
STARTCHAR 100
ENCODING 100
SWIDTH 576 0
DWIDTH 8 0
BBX 6 7 1 0
BITMAP
04
04
74
8C
84
8C
74
ENDCHAR
STARTCHAR 101
ENCODING 101
SWIDTH 576 0
DWIDTH 8 0
BBX 6 5 1 0
BITMAP
78
84
FC
80
78
ENDCHAR
STARTCHAR 102
ENCODING 102
SWIDTH 576 0
DWIDTH 8 0
BBX 6 7 1 0
BITMAP
18
24
20
F8
20
20
20
ENDCHAR
STARTCHAR 103
ENCODING 103
SWIDTH 576 0
DWIDTH 8 0
BBX 6 6 1 -1
BITMAP
74
8C
8C
74
04
78
ENDCHAR
STARTCHAR 104
ENCODING 104
SWIDTH 576 0
DWIDTH 8 0
BBX 6 7 1 0
BITMAP
80
80
B8
C4
84
84
84
ENDCHAR
STARTCHAR 105
ENCODING 105
SWIDTH 576 0
DWIDTH 8 0
BBX 3 7 3 0
BITMAP
40
00
C0
40
40
40
E0
ENDCHAR
STARTCHAR 106
ENCODING 106
SWIDTH 576 0
DWIDTH 8 0
BBX 5 8 1 -1
BITMAP
08
00
18
08
08
08
88
70
ENDCHAR
STARTCHAR 107
ENCODING 107
SWIDTH 576 0
DWIDTH 8 0
BBX 5 7 1 0
BITMAP
80
80
88
90
A0
D0
88
ENDCHAR
STARTCHAR 108
ENCODING 108
SWIDTH 576 0
DWIDTH 8 0
BBX 3 7 3 0
BITMAP
C0
40
40
40
40
40
E0
ENDCHAR
STARTCHAR 109
ENCODING 109
SWIDTH 576 0
DWIDTH 8 0
BBX 7 5 1 0
BITMAP
EC
92
92
92
92
ENDCHAR
STARTCHAR 110
ENCODING 110
SWIDTH 576 0
DWIDTH 8 0
BBX 6 5 1 0
BITMAP
B8
C4
84
84
84
ENDCHAR
STARTCHAR 111
ENCODING 111
SWIDTH 576 0
DWIDTH 8 0
BBX 6 5 1 0
BITMAP
78
84
84
84
78
ENDCHAR
STARTCHAR 112
ENCODING 112
SWIDTH 576 0
DWIDTH 8 0
BBX 6 6 1 -1
BITMAP
B8
C4
C4
B8
80
80
ENDCHAR
STARTCHAR 113
ENCODING 113
SWIDTH 576 0
DWIDTH 8 0
BBX 6 6 1 -1
BITMAP
74
8C
8C
74
04
04
ENDCHAR
STARTCHAR 114
ENCODING 114
SWIDTH 576 0
DWIDTH 8 0
BBX 6 5 1 0
BITMAP
B8
C4
80
80
80
ENDCHAR
STARTCHAR 115
ENCODING 115
SWIDTH 576 0
DWIDTH 8 0
BBX 6 5 1 0
BITMAP
7C
80
78
04
F8
ENDCHAR
STARTCHAR 116
ENCODING 116
SWIDTH 576 0
DWIDTH 8 0
BBX 6 7 1 0
BITMAP
20
20
F8
20
20
24
18
ENDCHAR
STARTCHAR 117
ENCODING 117
SWIDTH 576 0
DWIDTH 8 0
BBX 6 5 1 0
BITMAP
84
84
84
8C
74
ENDCHAR
STARTCHAR 118
ENCODING 118
SWIDTH 576 0
DWIDTH 8 0
BBX 6 5 1 0
BITMAP
84
84
84
48
30
ENDCHAR
STARTCHAR 119
ENCODING 119
SWIDTH 576 0
DWIDTH 8 0
BBX 7 5 1 0
BITMAP
82
92
92
92
6C
ENDCHAR
STARTCHAR 120
ENCODING 120
SWIDTH 576 0
DWIDTH 8 0
BBX 6 5 1 0
BITMAP
84
48
30
48
84
ENDCHAR
STARTCHAR 121
ENCODING 121
SWIDTH 576 0
DWIDTH 8 0
BBX 6 6 1 -1
BITMAP
84
84
8C
74
04
78
ENDCHAR
STARTCHAR 122
ENCODING 122
SWIDTH 576 0
DWIDTH 8 0
BBX 6 5 1 0
BITMAP
FC
08
30
40
FC
ENDCHAR
STARTCHAR 123
ENCODING 123
SWIDTH 576 0
DWIDTH 8 0
BBX 5 7 2 0
BITMAP
38
40
40
80
40
40
38
ENDCHAR
STARTCHAR 124
ENCODING 124
SWIDTH 576 0
DWIDTH 8 0
BBX 1 7 4 0
BITMAP
80
80
80
00
80
80
80
ENDCHAR
STARTCHAR 125
ENCODING 125
SWIDTH 576 0
DWIDTH 8 0
BBX 5 7 1 0
BITMAP
E0
10
10
08
10
10
E0
ENDCHAR
STARTCHAR 126
ENCODING 126
SWIDTH 576 0
DWIDTH 8 0
BBX 7 3 1 3
BITMAP
60
92
0C
ENDCHAR
STARTCHAR 127
ENCODING 127
SWIDTH 576 0
DWIDTH 8 0
BBX 7 5 1 1
BITMAP
10
38
44
82
FE
ENDCHAR
STARTCHAR 128
ENCODING 128
SWIDTH 576 0
DWIDTH 8 0
BBX 6 8 1 -1
BITMAP
38
44
80
80
80
44
38
60
ENDCHAR
STARTCHAR 129
ENCODING 129
SWIDTH 576 0
DWIDTH 8 0
BBX 6 7 1 0
BITMAP
48
00
84
84
84
8C
74
ENDCHAR
STARTCHAR 130
ENCODING 130
SWIDTH 576 0
DWIDTH 8 0
BBX 6 7 1 0
BITMAP
08
10
78
84
FC
80
78
ENDCHAR
STARTCHAR 131
ENCODING 131
SWIDTH 576 0
DWIDTH 8 0
BBX 6 7 1 0
BITMAP
30
48
78
08
78
88
74
ENDCHAR
STARTCHAR 132
ENCODING 132
SWIDTH 576 0
DWIDTH 8 0
BBX 6 7 1 0
BITMAP
48
00
78
08
78
88
74
ENDCHAR
STARTCHAR 133
ENCODING 133
SWIDTH 576 0
DWIDTH 8 0
BBX 6 7 1 0
BITMAP
40
20
78
08
78
88
74
ENDCHAR
STARTCHAR 134
ENCODING 134
SWIDTH 576 0
DWIDTH 8 0
BBX 6 7 1 0
BITMAP
30
00
78
08
78
88
74
ENDCHAR
STARTCHAR 135
ENCODING 135
SWIDTH 576 0
DWIDTH 8 0
BBX 6 6 1 -1
BITMAP
78
84
80
84
78
E0
ENDCHAR
STARTCHAR 136
ENCODING 136
SWIDTH 576 0
DWIDTH 8 0
BBX 6 7 1 0
BITMAP
30
48
78
84
FC
80
78
ENDCHAR
STARTCHAR 137
ENCODING 137
SWIDTH 576 0
DWIDTH 8 0
BBX 6 7 1 0
BITMAP
48
00
78
84
FC
80
78
ENDCHAR
STARTCHAR 138
ENCODING 138
SWIDTH 576 0
DWIDTH 8 0
BBX 6 7 1 0
BITMAP
40
20
78
84
FC
80
78
ENDCHAR
STARTCHAR 139
ENCODING 139
SWIDTH 576 0
DWIDTH 8 0
BBX 4 7 2 0
BITMAP
90
00
60
20
20
20
70
ENDCHAR
STARTCHAR 140
ENCODING 140
SWIDTH 576 0
DWIDTH 8 0
BBX 4 7 2 0
BITMAP
60
90
60
20
20
20
70
ENDCHAR
STARTCHAR 141
ENCODING 141
SWIDTH 576 0
DWIDTH 8 0
BBX 3 7 3 0
BITMAP
80
40
C0
40
40
40
E0
ENDCHAR
STARTCHAR 142
ENCODING 142
SWIDTH 576 0
DWIDTH 8 0
BBX 6 7 1 0
BITMAP
84
30
48
84
FC
84
84
ENDCHAR
STARTCHAR 143
ENCODING 143
SWIDTH 576 0
DWIDTH 8 0
BBX 6 7 1 0
BITMAP
30
30
48
84
FC
84
84
ENDCHAR
STARTCHAR 144
ENCODING 144
SWIDTH 576 0
DWIDTH 8 0
BBX 6 7 1 0
BITMAP
04
08
FC
80
F8
80
FC
ENDCHAR
STARTCHAR 145
ENCODING 145
SWIDTH 576 0
DWIDTH 8 0
BBX 7 5 1 0
BITMAP
7C
1A
7E
98
76
ENDCHAR
STARTCHAR 146
ENCODING 146
SWIDTH 576 0
DWIDTH 8 0
BBX 6 7 2 0
BITMAP
3C
50
90
FC
90
90
9C
ENDCHAR
STARTCHAR 147
ENCODING 147
SWIDTH 576 0
DWIDTH 8 0
BBX 6 7 1 0
BITMAP
30
48
78
84
84
84
78
ENDCHAR
STARTCHAR 148
ENCODING 148
SWIDTH 576 0
DWIDTH 8 0
BBX 6 7 1 0
BITMAP
48
00
78
84
84
84
78
ENDCHAR
STARTCHAR 149
ENCODING 149
SWIDTH 576 0
DWIDTH 8 0
BBX 6 7 1 0
BITMAP
40
20
78
84
84
84
78
ENDCHAR
STARTCHAR 150
ENCODING 150
SWIDTH 576 0
DWIDTH 8 0
BBX 6 7 1 0
BITMAP
30
48
00
84
84
8C
74
ENDCHAR
STARTCHAR 151
ENCODING 151
SWIDTH 576 0
DWIDTH 8 0
BBX 6 7 1 0
BITMAP
40
20
84
84
84
8C
74
ENDCHAR
STARTCHAR 152
ENCODING 152
SWIDTH 576 0
DWIDTH 8 0
BBX 6 8 1 -1
BITMAP
48
00
84
84
8C
74
04
78
ENDCHAR
STARTCHAR 153
ENCODING 153
SWIDTH 576 0
DWIDTH 8 0
BBX 6 7 1 0
BITMAP
84
30
48
84
84
48
30
ENDCHAR
STARTCHAR 154
ENCODING 154
SWIDTH 576 0
DWIDTH 8 0
BBX 6 7 1 0
BITMAP
48
00
84
84
84
84
78
ENDCHAR
STARTCHAR 155
ENCODING 155
SWIDTH 576 0
DWIDTH 8 0
BBX 5 7 2 0
BITMAP
20
70
88
80
88
70
20
ENDCHAR
STARTCHAR 156
ENCODING 156
SWIDTH 576 0
DWIDTH 8 0
BBX 6 7 1 0
BITMAP
18
24
70
20
E0
A4
D8
ENDCHAR
STARTCHAR 157
ENCODING 157
SWIDTH 576 0
DWIDTH 8 0
BBX 5 7 2 0
BITMAP
88
50
F8
20
F8
20
20
ENDCHAR
STARTCHAR 158
ENCODING 158
SWIDTH 576 0
DWIDTH 8 0
BBX 6 7 1 0
BITMAP
E0
90
E0
90
B8
94
98
ENDCHAR
STARTCHAR 159
ENCODING 159
SWIDTH 576 0
DWIDTH 8 0
BBX 5 7 2 0
BITMAP
10
28
20
70
20
A0
40
ENDCHAR
STARTCHAR 160
ENCODING 160
SWIDTH 576 0
DWIDTH 8 0
BBX 6 7 1 0
BITMAP
08
10
78
08
78
88
74
ENDCHAR
STARTCHAR 161
ENCODING 161
SWIDTH 576 0
DWIDTH 8 0
BBX 3 7 3 0
BITMAP
20
40
C0
40
40
40
E0
ENDCHAR
STARTCHAR 162
ENCODING 162
SWIDTH 576 0
DWIDTH 8 0
BBX 6 7 1 0
BITMAP
08
10
78
84
84
84
78
ENDCHAR
STARTCHAR 163
ENCODING 163
SWIDTH 576 0
DWIDTH 8 0
BBX 6 7 1 0
BITMAP
08
10
84
84
84
8C
74
ENDCHAR
STARTCHAR 164
ENCODING 164
SWIDTH 576 0
DWIDTH 8 0
BBX 6 7 1 0
BITMAP
64
98
00
B8
C4
84
84
ENDCHAR
STARTCHAR 165
ENCODING 165
SWIDTH 576 0
DWIDTH 8 0
BBX 6 7 1 0
BITMAP
64
98
C4
A4
94
8C
84
ENDCHAR
STARTCHAR 166
ENCODING 166
SWIDTH 576 0
DWIDTH 8 0
BBX 6 7 1 0
BITMAP
78
08
78
88
74
00
FC
ENDCHAR
STARTCHAR 167
ENCODING 167
SWIDTH 576 0
DWIDTH 8 0
BBX 6 7 1 0
BITMAP
78
84
84
84
78
00
FC
ENDCHAR
STARTCHAR 168
ENCODING 168
SWIDTH 576 0
DWIDTH 8 0
BBX 6 7 1 0
BITMAP
10
00
10
60
80
84
78
ENDCHAR
STARTCHAR 169
ENCODING 169
SWIDTH 576 0
DWIDTH 8 0
BBX 6 4 1 2
BITMAP
FC
80
80
80
ENDCHAR
STARTCHAR 170
ENCODING 170
SWIDTH 576 0
DWIDTH 8 0
BBX 6 4 1 2
BITMAP
FC
04
04
04
ENDCHAR
STARTCHAR 171
ENCODING 171
SWIDTH 576 0
DWIDTH 8 0
BBX 7 7 1 0
BITMAP
44
48
50
2C
52
84
1E
ENDCHAR
STARTCHAR 172
ENCODING 172
SWIDTH 576 0
DWIDTH 8 0
BBX 7 7 1 0
BITMAP
44
48
50
2C
54
9E
04
ENDCHAR
STARTCHAR 173
ENCODING 173
SWIDTH 576 0
DWIDTH 8 0
BBX 1 7 4 0
BITMAP
80
00
00
80
80
80
80
ENDCHAR
STARTCHAR 174
ENCODING 174
SWIDTH 576 0
DWIDTH 8 0
BBX 6 5 1 1
BITMAP
24
48
90
48
24
ENDCHAR
STARTCHAR 175
ENCODING 175
SWIDTH 576 0
DWIDTH 8 0
BBX 6 5 1 1
BITMAP
90
48
24
48
90
ENDCHAR
STARTCHAR 176
ENCODING 176
SWIDTH 576 0
DWIDTH 8 0
BBX 7 8 1 -1
BITMAP
88
22
88
22
88
22
88
22
ENDCHAR
STARTCHAR 177
ENCODING 177
SWIDTH 576 0
DWIDTH 8 0
BBX 8 8 0 -1
BITMAP
AA
55
AA
55
AA
55
AA
55
ENDCHAR
STARTCHAR 178
ENCODING 178
SWIDTH 576 0
DWIDTH 8 0
BBX 8 8 0 -1
BITMAP
DB
EE
DB
77
DB
EE
DB
77
ENDCHAR
STARTCHAR 179
ENCODING 179
SWIDTH 576 0
DWIDTH 8 0
BBX 1 8 4 -1
BITMAP
80
80
80
80
80
80
80
80
ENDCHAR
STARTCHAR 180
ENCODING 180
SWIDTH 576 0
DWIDTH 8 0
BBX 5 8 0 -1
BITMAP
08
08
08
08
F8
08
08
08
ENDCHAR
STARTCHAR 181
ENCODING 181
SWIDTH 576 0
DWIDTH 8 0
BBX 5 8 0 -1
BITMAP
08
08
F8
08
08
F8
08
08
ENDCHAR
STARTCHAR 182
ENCODING 182
SWIDTH 576 0
DWIDTH 8 0
BBX 6 8 0 -1
BITMAP
24
24
24
24
E4
24
24
24
ENDCHAR
STARTCHAR 183
ENCODING 183
SWIDTH 576 0
DWIDTH 8 0
BBX 6 4 0 -1
BITMAP
FC
24
24
24
ENDCHAR
STARTCHAR 184
ENCODING 184
SWIDTH 576 0
DWIDTH 8 0
BBX 5 6 0 -1
BITMAP
F8
08
08
F8
08
08
ENDCHAR
STARTCHAR 185
ENCODING 185
SWIDTH 576 0
DWIDTH 8 0
BBX 6 8 0 -1
BITMAP
24
24
E4
04
04
E4
24
24
ENDCHAR
STARTCHAR 186
ENCODING 186
SWIDTH 576 0
DWIDTH 8 0
BBX 4 8 2 -1
BITMAP
90
90
90
90
90
90
90
90
ENDCHAR
STARTCHAR 187
ENCODING 187
SWIDTH 576 0
DWIDTH 8 0
BBX 6 6 0 -1
BITMAP
FC
04
04
E4
24
24
ENDCHAR
STARTCHAR 188
ENCODING 188
SWIDTH 576 0
DWIDTH 8 0
BBX 6 6 0 1
BITMAP
24
24
E4
04
04
FC
ENDCHAR
STARTCHAR 189
ENCODING 189
SWIDTH 576 0
DWIDTH 8 0
BBX 6 5 0 2
BITMAP
24
24
24
24
FC
ENDCHAR
STARTCHAR 190
ENCODING 190
SWIDTH 576 0
DWIDTH 8 0
BBX 5 6 0 1
BITMAP
08
08
F8
08
08
F8
ENDCHAR
STARTCHAR 191
ENCODING 191
SWIDTH 576 0
DWIDTH 8 0
BBX 5 4 0 -1
BITMAP
F8
08
08
08
ENDCHAR
STARTCHAR 192
ENCODING 192
SWIDTH 576 0
DWIDTH 8 0
BBX 4 5 4 2
BITMAP
80
80
80
80
F0
ENDCHAR
STARTCHAR 193
ENCODING 193
SWIDTH 576 0
DWIDTH 8 0
BBX 8 5 0 2
BITMAP
08
08
08
08
FF
ENDCHAR
STARTCHAR 194
ENCODING 194
SWIDTH 576 0
DWIDTH 8 0
BBX 8 4 0 -1
BITMAP
FF
08
08
08
ENDCHAR
STARTCHAR 195
ENCODING 195
SWIDTH 576 0
DWIDTH 8 0
BBX 4 8 4 -1
BITMAP
80
80
80
80
F0
80
80
80
ENDCHAR
STARTCHAR 196
ENCODING 196
SWIDTH 576 0
DWIDTH 8 0
BBX 8 1 0 2
BITMAP
FF
ENDCHAR
STARTCHAR 197
ENCODING 197
SWIDTH 576 0
DWIDTH 8 0
BBX 8 8 0 -1
BITMAP
08
08
08
08
FF
08
08
08
ENDCHAR
STARTCHAR 198
ENCODING 198
SWIDTH 576 0
DWIDTH 8 0
BBX 4 8 4 -1
BITMAP
80
80
F0
80
80
F0
80
80
ENDCHAR
STARTCHAR 199
ENCODING 199
SWIDTH 576 0
DWIDTH 8 0
BBX 6 8 2 -1
BITMAP
90
90
90
90
9C
90
90
90
ENDCHAR
STARTCHAR 200
ENCODING 200
SWIDTH 576 0
DWIDTH 8 0
BBX 6 6 2 1
BITMAP
90
90
9C
80
80
FC
ENDCHAR
STARTCHAR 201
ENCODING 201
SWIDTH 576 0
DWIDTH 8 0
BBX 6 6 2 -1
BITMAP
FC
80
80
9C
90
90
ENDCHAR
STARTCHAR 202
ENCODING 202
SWIDTH 576 0
DWIDTH 8 0
BBX 8 6 0 1
BITMAP
24
24
E7
00
00
FF
ENDCHAR
STARTCHAR 203
ENCODING 203
SWIDTH 576 0
DWIDTH 8 0
BBX 8 6 0 -1
BITMAP
FF
00
00
E7
24
24
ENDCHAR
STARTCHAR 204
ENCODING 204
SWIDTH 576 0
DWIDTH 8 0
BBX 6 8 2 -1
BITMAP
90
90
9C
80
80
9C
90
90
ENDCHAR
STARTCHAR 205
ENCODING 205
SWIDTH 576 0
DWIDTH 8 0
BBX 8 4 0 1
BITMAP
FF
00
00
FF
ENDCHAR
STARTCHAR 206
ENCODING 206
SWIDTH 576 0
DWIDTH 8 0
BBX 8 8 0 -1
BITMAP
24
24
E7
00
00
E7
24
24
ENDCHAR
STARTCHAR 207
ENCODING 207
SWIDTH 576 0
DWIDTH 8 0
BBX 8 6 0 1
BITMAP
08
08
FF
00
00
FF
ENDCHAR
STARTCHAR 208
ENCODING 208
SWIDTH 576 0
DWIDTH 8 0
BBX 8 5 0 2
BITMAP
24
24
24
24
FF
ENDCHAR
STARTCHAR 209
ENCODING 209
SWIDTH 576 0
DWIDTH 8 0
BBX 8 6 0 -1
BITMAP
FF
00
00
FF
08
08
ENDCHAR
STARTCHAR 210
ENCODING 210
SWIDTH 576 0
DWIDTH 8 0
BBX 8 4 0 -1
BITMAP
FF
24
24
24
ENDCHAR
STARTCHAR 211
ENCODING 211
SWIDTH 576 0
DWIDTH 8 0
BBX 6 5 2 2
BITMAP
90
90
90
90
FC
ENDCHAR
STARTCHAR 212
ENCODING 212
SWIDTH 576 0
DWIDTH 8 0
BBX 4 6 4 1
BITMAP
80
80
F0
80
80
F0
ENDCHAR
STARTCHAR 213
ENCODING 213
SWIDTH 576 0
DWIDTH 8 0
BBX 4 6 4 -1
BITMAP
F0
80
80
F0
80
80
ENDCHAR
STARTCHAR 214
ENCODING 214
SWIDTH 576 0
DWIDTH 8 0
BBX 6 4 2 -1
BITMAP
FC
90
90
90
ENDCHAR
STARTCHAR 215
ENCODING 215
SWIDTH 576 0
DWIDTH 8 0
BBX 8 8 0 -1
BITMAP
24
24
24
24
FF
24
24
24
ENDCHAR
STARTCHAR 216
ENCODING 216
SWIDTH 576 0
DWIDTH 8 0
BBX 8 8 0 -1
BITMAP
08
08
FF
08
08
FF
08
08
ENDCHAR
STARTCHAR 217
ENCODING 217
SWIDTH 576 0
DWIDTH 8 0
BBX 5 5 0 2
BITMAP
08
08
08
08
F8
ENDCHAR
STARTCHAR 218
ENCODING 218
SWIDTH 576 0
DWIDTH 8 0
BBX 4 4 4 -1
BITMAP
F0
80
80
80
ENDCHAR
STARTCHAR 219
ENCODING 219
SWIDTH 576 0
DWIDTH 8 0
BBX 8 8 0 -1
BITMAP
FF
FF
FF
FF
FF
FF
FF
FF
ENDCHAR
STARTCHAR 220
ENCODING 220
SWIDTH 576 0
DWIDTH 8 0
BBX 8 4 0 -1
BITMAP
FF
FF
FF
FF
ENDCHAR
STARTCHAR 221
ENCODING 221
SWIDTH 576 0
DWIDTH 8 0
BBX 4 8 0 -1
BITMAP
F0
F0
F0
F0
F0
F0
F0
F0
ENDCHAR
STARTCHAR 222
ENCODING 222
SWIDTH 576 0
DWIDTH 8 0
BBX 4 8 4 -1
BITMAP
F0
F0
F0
F0
F0
F0
F0
F0
ENDCHAR
STARTCHAR 223
ENCODING 223
SWIDTH 576 0
DWIDTH 8 0
BBX 8 4 0 3
BITMAP
FF
FF
FF
FF
ENDCHAR
STARTCHAR 224
ENCODING 224
SWIDTH 576 0
DWIDTH 8 0
BBX 6 5 1 0
BITMAP
74
88
88
88
74
ENDCHAR
STARTCHAR 225
ENCODING 225
SWIDTH 576 0
DWIDTH 8 0
BBX 7 8 1 -1
BITMAP
3C
42
42
7C
42
62
5C
C0
ENDCHAR
STARTCHAR 226
ENCODING 226
SWIDTH 576 0
DWIDTH 8 0
BBX 7 7 1 0
BITMAP
FE
C4
C0
C0
C0
C0
C0
ENDCHAR
STARTCHAR 227
ENCODING 227
SWIDTH 576 0
DWIDTH 8 0
BBX 7 7 1 0
BITMAP
02
7C
A8
28
28
28
26
ENDCHAR
STARTCHAR 228
ENCODING 228
SWIDTH 576 0
DWIDTH 8 0
BBX 7 7 1 0
BITMAP
FE
44
20
10
20
44
FE
ENDCHAR
STARTCHAR 229
ENCODING 229
SWIDTH 576 0
DWIDTH 8 0
BBX 7 7 1 0
BITMAP
02
3C
48
84
84
48
30
ENDCHAR
STARTCHAR 230
ENCODING 230
SWIDTH 576 0
DWIDTH 8 0
BBX 5 7 1 0
BITMAP
90
90
90
90
E8
80
80
ENDCHAR
STARTCHAR 231
ENCODING 231
SWIDTH 576 0
DWIDTH 8 0
BBX 7 7 1 0
BITMAP
C0
26
28
30
20
60
60
ENDCHAR
STARTCHAR 232
ENCODING 232
SWIDTH 576 0
DWIDTH 8 0
BBX 5 7 2 0
BITMAP
70
20
70
88
70
20
70
ENDCHAR
STARTCHAR 233
ENCODING 233
SWIDTH 576 0
DWIDTH 8 0
BBX 6 7 1 0
BITMAP
30
48
84
FC
84
48
30
ENDCHAR
STARTCHAR 234
ENCODING 234
SWIDTH 576 0
DWIDTH 8 0
BBX 7 7 1 0
BITMAP
38
44
82
82
82
44
C6
ENDCHAR
STARTCHAR 235
ENCODING 235
SWIDTH 576 0
DWIDTH 8 0
BBX 5 7 1 0
BITMAP
70
88
80
70
88
88
70
ENDCHAR
STARTCHAR 236
ENCODING 236
SWIDTH 576 0
DWIDTH 8 0
BBX 7 5 1 1
BITMAP
44
AA
92
AA
44
ENDCHAR
STARTCHAR 237
ENCODING 237
SWIDTH 576 0
DWIDTH 8 0
BBX 6 6 1 1
BITMAP
08
78
94
A4
78
40
ENDCHAR
STARTCHAR 238
ENCODING 238
SWIDTH 576 0
DWIDTH 8 0
BBX 5 7 1 0
BITMAP
38
40
80
F8
80
40
38
ENDCHAR
STARTCHAR 239
ENCODING 239
SWIDTH 576 0
DWIDTH 8 0
BBX 6 7 1 0
BITMAP
78
84
84
84
84
84
84
ENDCHAR
STARTCHAR 240
ENCODING 240
SWIDTH 576 0
DWIDTH 8 0
BBX 6 7 1 0
BITMAP
FC
00
00
FC
00
00
FC
ENDCHAR
STARTCHAR 241
ENCODING 241
SWIDTH 576 0
DWIDTH 8 0
BBX 7 7 1 0
BITMAP
10
10
FE
10
10
00
FE
ENDCHAR
STARTCHAR 242
ENCODING 242
SWIDTH 576 0
DWIDTH 8 0
BBX 4 7 2 0
BITMAP
40
20
10
20
40
00
F0
ENDCHAR
STARTCHAR 243
ENCODING 243
SWIDTH 576 0
DWIDTH 8 0
BBX 4 7 3 0
BITMAP
20
40
80
40
20
00
F0
ENDCHAR
STARTCHAR 244
ENCODING 244
SWIDTH 576 0
DWIDTH 8 0
BBX 3 8 4 -1
BITMAP
40
A0
A0
80
80
80
80
80
ENDCHAR
STARTCHAR 245
ENCODING 245
SWIDTH 576 0
DWIDTH 8 0
BBX 3 8 2 -1
BITMAP
20
20
20
20
20
A0
A0
40
ENDCHAR
STARTCHAR 246
ENCODING 246
SWIDTH 576 0
DWIDTH 8 0
BBX 5 5 1 0
BITMAP
20
00
F8
00
20
ENDCHAR
STARTCHAR 247
ENCODING 247
SWIDTH 576 0
DWIDTH 8 0
BBX 7 6 1 0
BITMAP
60
92
0C
60
92
0C
ENDCHAR
STARTCHAR 248
ENCODING 248
SWIDTH 576 0
DWIDTH 8 0
BBX 3 3 2 4
BITMAP
E0
A0
E0
ENDCHAR
STARTCHAR 249
ENCODING 249
SWIDTH 576 0
DWIDTH 8 0
BBX 2 2 3 4
BITMAP
C0
C0
ENDCHAR
STARTCHAR 250
ENCODING 250
SWIDTH 576 0
DWIDTH 8 0
BBX 2 2 3 2
BITMAP
C0
C0
ENDCHAR
STARTCHAR 251
ENCODING 251
SWIDTH 576 0
DWIDTH 8 0
BBX 5 8 3 -1
BITMAP
08
08
08
08
48
A8
18
08
ENDCHAR
STARTCHAR 252
ENCODING 252
SWIDTH 576 0
DWIDTH 8 0
BBX 3 5 1 2
BITMAP
80
E0
A0
A0
A0
ENDCHAR
STARTCHAR 253
ENCODING 253
SWIDTH 576 0
DWIDTH 8 0
BBX 5 5 2 2
BITMAP
70
88
30
40
F8
ENDCHAR
STARTCHAR 254
ENCODING 254
SWIDTH 576 0
DWIDTH 8 0
BBX 3 4 3 1
BITMAP
E0
E0
E0
E0
ENDCHAR
STARTCHAR 255
ENCODING 255
SWIDTH 576 0
DWIDTH 8 0
BBX 0 0 0 0
BITMAP
ENDCHAR
ENDFONT
